<svg xmlns="http://www.w3.org/2000/svg" version="1.1" xmlns:xlink="http://www.w3.org/1999/xlink" xmlns:svgjs="http://svgjs.com/svgjs" width="1920" height="1080" preserveAspectRatio="none" viewBox="0 0 1920 1080"><g mask="url(&quot;#SvgjsMask1774&quot;)" fill="none"><rect width="1920" height="1080" x="0" y="0" fill="rgba(245, 165, 58, 1)"></rect><use xlink:href="#SvgjsG1782" transform="translate(0, 0)" fill="rgba(0, 0, 0, 1)"></use><use xlink:href="#SvgjsG1782" transform="translate(0, 951.9999999999999)" fill="rgba(0, 0, 0, 1)"></use><use xlink:href="#SvgjsG1782" transform="translate(951.9999999999999, 0)" fill="rgba(0, 0, 0, 1)"></use><use xlink:href="#SvgjsG1782" transform="translate(951.9999999999999, 951.9999999999999)" fill="rgba(0, 0, 0, 1)"></use><use xlink:href="#SvgjsG1782" transform="translate(1903.9999999999998, 0)" fill="rgba(0, 0, 0, 1)"></use><use xlink:href="#SvgjsG1782" transform="translate(1903.9999999999998, 951.9999999999999)" fill="rgba(0, 0, 0, 1)"></use></g><defs><mask id="SvgjsMask1774"><rect width="1920" height="1080" fill="#ffffff"></rect></mask><g id="SvgjsG1777"><path d="M15.964 4.774l-1.312 10.327H10.223L8.916 4.774h5.408L15.395 1.04 16 1.21l-1.024 3.562 0.988 0.002zM8.29 10.788s0.166-1.502-2.131-1.502H2.5c-2.293 0-2.131 1.502-2.132 1.502h7.922zM0.368 13.595s-0.162 1.506 2.132 1.506h3.659c2.297 0 2.131-1.506 2.131-1.506H0.369z m7.578-0.727a0.68 0.68 0 0 0 0.68-0.68c0-0.372-0.304-0.676-0.68-0.676H0.68C0.306 11.512 0 11.816 0 12.188a0.682 0.682 0 0 0 0.68 0.68h7.266z"></path></g><g id="SvgjsG1775"><path d="M7.741 5.269c-0.003 0.523-0.481 1.084-1.101 1.084v8.856c0 1.261-1.714 1.261-1.716 0V6.354c-0.602 0-1.127-0.465-1.126-1.159V0.315c-0.001-0.423 0.612-0.44 0.616 0.017v3.606h0.51V0.299c0-0.389 0.59-0.414 0.591 0.016v3.623h0.526V0.307C6.044-0.103 6.618-0.12 6.616 0.323v3.615h0.526V0.307c-0.002-0.406 0.597-0.423 0.599 0.016v4.946zM12.309 1.449v13.76c0.002 1.229-1.715 1.211-1.717 0V9.746h-0.912V1.449c-0.001-1.932 2.631-1.932 2.629 0z"></path></g><g id="SvgjsG1780"><path d="M15.065 12.151H0.02c0 1.333 1.015 1.95 1.83 1.95h11.386c0.975 0 1.83-0.767 1.829-1.951zM12.853 2.166H1.869v7.208c0 0.976 0.843 1.75 1.755 1.75h7.121c1.031 0 1.731-0.863 1.731-1.749V8.773c2.031 0 3.505-1.527 3.505-3.303 0-1.815-1.445-3.303-3.126-3.303z m1.832 3.305c0 1.036-0.763 2.025-2.21 1.931V3.519l0.378 0 0 0.001c1.391 0 1.837 1.318 1.832 1.952v-0.001z"></path></g><g id="SvgjsG1776"><path d="M12.049 4.244l-1.49 11.735H5.527L4.041 4.244h6.146L11.403 0 12.091 0.193l-1.164 4.048 1.122 0.003z" fill-rule="evenodd"></path></g><g id="SvgjsG1778"><path d="M2.752 7.711c0.292 0 0.539-0.241 0.539-0.533 0-0.293-0.247-0.534-0.539-0.534-0.289 0-0.539 0.241-0.539 0.534 0 0.292 0.249 0.533 0.539 0.533M0.016 8.499a0.062 0.062 0 0 1-0.016-0.04c0-0.03 0.028-0.054 0.058-0.055h1.705c0.082 0 0.149-0.066 0.149-0.148 0-0.064-0.028-0.107-0.091-0.143L0.279 7.379a0.097 0.097 0 0 1-0.048-0.086c0-0.026 0.008-0.05 0.028-0.071 0 0 4.046-3.576 13.009-0.11l2.461-1.2c0.024-0.012 0.052-0.02 0.078-0.02 0.107 0 0.193 0.086 0.193 0.193a0.208 0.208 0 0 1-0.028 0.098l-1.451 1.807 1.451 1.801c0.016 0.032 0.028 0.064 0.028 0.103 0 0.102-0.086 0.189-0.193 0.189-0.026 0-0.054-0.008-0.078-0.02l-2.461-1.2S4.701 12.264 0.016 8.499" fill-rule="evenodd"></path></g><g id="SvgjsG1779"><path d="M3.898 0s0.232 4.58 4.246 4.192S8.597 0.364 3.898 0m4.203 14.894a2.324 2.324 0 0 1-1.902 0.977c-0.64 0-1.267-0.3-1.689-0.721-0.864-0.943-1.985-3.051-1.986-3.052C1.897 10.822 1.56 9.837 1.56 8.839c0-2.126 1.72-3.968 3.848-3.968 1.05 0 1.996 0.42 2.692 1.099a3.835 3.835 0 0 1 2.69-1.099c2.129 0 3.848 1.842 3.849 3.967 0 0.997-0.334 1.983-0.964 3.259 0 0-1.12 2.108-1.984 3.051-0.423 0.422-1.049 0.722-1.689 0.722a2.321 2.321 0 0 1-1.899-0.977" fill-rule="evenodd"></path></g><g id="SvgjsG1781"><path d="M11.406 2.678H4.629C0.382 2.678 0.682 5.459 0.682 5.459h14.67S15.66 2.678 11.406 2.678zM4.629 13.447h6.777c4.254 0 3.947-2.789 3.946-2.789H0.682s-0.3 2.789 3.947 2.789z m10.087-4.135a1.259 1.259 0 0 0 1.259-1.259c0-0.69-0.562-1.252-1.259-1.252H1.259C0.566 6.801 0 7.363 0 8.052a1.262 1.262 0 0 0 1.259 1.26h13.457z" fill-rule="evenodd"></path></g><g id="SvgjsG1782"><use xlink:href="#SvgjsG1775" transform="translate(0, 0) scale(2.8)" fill="rgba(0, 0, 0, 1)"></use><use xlink:href="#SvgjsG1776" transform="translate(0, 95.19999999999999) scale(2.8)" fill="rgba(0, 0, 0, 1)"></use><use xlink:href="#SvgjsG1777" transform="translate(0, 190.39999999999998) scale(2.8)" fill="rgba(0, 0, 0, 1)"></use><use xlink:href="#SvgjsG1778" transform="translate(0, 285.59999999999997) scale(2.8)" fill="rgba(0, 0, 0, 1)"></use><use xlink:href="#SvgjsG1778" transform="translate(0, 380.79999999999995) scale(2.8)" fill="rgba(0, 0, 0, 1)"></use><use xlink:href="#SvgjsG1775" transform="translate(0, 475.99999999999994) scale(2.8)" fill="rgba(0, 0, 0, 1)"></use><use xlink:href="#SvgjsG1779" transform="translate(0, 571.1999999999999) scale(2.8)" fill="rgba(0, 0, 0, 1)"></use><use xlink:href="#SvgjsG1776" transform="translate(0, 666.3999999999999) scale(2.8)" fill="rgba(0, 0, 0, 1)"></use><use xlink:href="#SvgjsG1778" transform="translate(0, 761.5999999999999) scale(2.8)" fill="rgba(0, 0, 0, 1)"></use><use xlink:href="#SvgjsG1775" transform="translate(0, 856.8) scale(2.8)" fill="rgba(0, 0, 0, 1)"></use><use xlink:href="#SvgjsG1778" transform="translate(95.19999999999999, 0) scale(2.8)" fill="rgba(0, 0, 0, 1)"></use><use xlink:href="#SvgjsG1775" transform="translate(95.19999999999999, 95.19999999999999) scale(2.8)" fill="rgba(0, 0, 0, 1)"></use><use xlink:href="#SvgjsG1775" transform="translate(95.19999999999999, 190.39999999999998) scale(2.8)" fill="rgba(0, 0, 0, 1)"></use><use xlink:href="#SvgjsG1775" transform="translate(95.19999999999999, 285.59999999999997) scale(2.8)" fill="rgba(0, 0, 0, 1)"></use><use xlink:href="#SvgjsG1778" transform="translate(95.19999999999999, 380.79999999999995) scale(2.8)" fill="rgba(0, 0, 0, 1)"></use><use xlink:href="#SvgjsG1778" transform="translate(95.19999999999999, 475.99999999999994) scale(2.8)" fill="rgba(0, 0, 0, 1)"></use><use xlink:href="#SvgjsG1777" transform="translate(95.19999999999999, 571.1999999999999) scale(2.8)" fill="rgba(0, 0, 0, 1)"></use><use xlink:href="#SvgjsG1778" transform="translate(95.19999999999999, 666.3999999999999) scale(2.8)" fill="rgba(0, 0, 0, 1)"></use><use xlink:href="#SvgjsG1776" transform="translate(95.19999999999999, 761.5999999999999) scale(2.8)" fill="rgba(0, 0, 0, 1)"></use><use xlink:href="#SvgjsG1780" transform="translate(95.19999999999999, 856.8) scale(2.8)" fill="rgba(0, 0, 0, 1)"></use><use xlink:href="#SvgjsG1781" transform="translate(190.39999999999998, 0) scale(2.8)" fill="rgba(0, 0, 0, 1)"></use><use xlink:href="#SvgjsG1780" transform="translate(190.39999999999998, 95.19999999999999) scale(2.8)" fill="rgba(0, 0, 0, 1)"></use><use xlink:href="#SvgjsG1781" transform="translate(190.39999999999998, 190.39999999999998) scale(2.8)" fill="rgba(0, 0, 0, 1)"></use><use xlink:href="#SvgjsG1781" transform="translate(190.39999999999998, 285.59999999999997) scale(2.8)" fill="rgba(0, 0, 0, 1)"></use><use xlink:href="#SvgjsG1781" transform="translate(190.39999999999998, 380.79999999999995) scale(2.8)" fill="rgba(0, 0, 0, 1)"></use><use xlink:href="#SvgjsG1777" transform="translate(190.39999999999998, 475.99999999999994) scale(2.8)" fill="rgba(0, 0, 0, 1)"></use><use xlink:href="#SvgjsG1778" transform="translate(190.39999999999998, 571.1999999999999) scale(2.8)" fill="rgba(0, 0, 0, 1)"></use><use xlink:href="#SvgjsG1781" transform="translate(190.39999999999998, 666.3999999999999) scale(2.8)" fill="rgba(0, 0, 0, 1)"></use><use xlink:href="#SvgjsG1778" transform="translate(190.39999999999998, 761.5999999999999) scale(2.8)" fill="rgba(0, 0, 0, 1)"></use><use xlink:href="#SvgjsG1779" transform="translate(190.39999999999998, 856.8) scale(2.8)" fill="rgba(0, 0, 0, 1)"></use><use xlink:href="#SvgjsG1779" transform="translate(285.59999999999997, 0) scale(2.8)" fill="rgba(0, 0, 0, 1)"></use><use xlink:href="#SvgjsG1781" transform="translate(285.59999999999997, 95.19999999999999) scale(2.8)" fill="rgba(0, 0, 0, 1)"></use><use xlink:href="#SvgjsG1777" transform="translate(285.59999999999997, 190.39999999999998) scale(2.8)" fill="rgba(0, 0, 0, 1)"></use><use xlink:href="#SvgjsG1778" transform="translate(285.59999999999997, 285.59999999999997) scale(2.8)" fill="rgba(0, 0, 0, 1)"></use><use xlink:href="#SvgjsG1779" transform="translate(285.59999999999997, 380.79999999999995) scale(2.8)" fill="rgba(0, 0, 0, 1)"></use><use xlink:href="#SvgjsG1775" transform="translate(285.59999999999997, 475.99999999999994) scale(2.8)" fill="rgba(0, 0, 0, 1)"></use><use xlink:href="#SvgjsG1777" transform="translate(285.59999999999997, 571.1999999999999) scale(2.8)" fill="rgba(0, 0, 0, 1)"></use><use xlink:href="#SvgjsG1779" transform="translate(285.59999999999997, 666.3999999999999) scale(2.8)" fill="rgba(0, 0, 0, 1)"></use><use xlink:href="#SvgjsG1781" transform="translate(285.59999999999997, 761.5999999999999) scale(2.8)" fill="rgba(0, 0, 0, 1)"></use><use xlink:href="#SvgjsG1775" transform="translate(285.59999999999997, 856.8) scale(2.8)" fill="rgba(0, 0, 0, 1)"></use><use xlink:href="#SvgjsG1779" transform="translate(380.79999999999995, 0) scale(2.8)" fill="rgba(0, 0, 0, 1)"></use><use xlink:href="#SvgjsG1776" transform="translate(380.79999999999995, 95.19999999999999) scale(2.8)" fill="rgba(0, 0, 0, 1)"></use><use xlink:href="#SvgjsG1779" transform="translate(380.79999999999995, 190.39999999999998) scale(2.8)" fill="rgba(0, 0, 0, 1)"></use><use xlink:href="#SvgjsG1776" transform="translate(380.79999999999995, 285.59999999999997) scale(2.8)" fill="rgba(0, 0, 0, 1)"></use><use xlink:href="#SvgjsG1780" transform="translate(380.79999999999995, 380.79999999999995) scale(2.8)" fill="rgba(0, 0, 0, 1)"></use><use xlink:href="#SvgjsG1781" transform="translate(380.79999999999995, 475.99999999999994) scale(2.8)" fill="rgba(0, 0, 0, 1)"></use><use xlink:href="#SvgjsG1776" transform="translate(380.79999999999995, 571.1999999999999) scale(2.8)" fill="rgba(0, 0, 0, 1)"></use><use xlink:href="#SvgjsG1778" transform="translate(380.79999999999995, 666.3999999999999) scale(2.8)" fill="rgba(0, 0, 0, 1)"></use><use xlink:href="#SvgjsG1779" transform="translate(380.79999999999995, 761.5999999999999) scale(2.8)" fill="rgba(0, 0, 0, 1)"></use><use xlink:href="#SvgjsG1777" transform="translate(380.79999999999995, 856.8) scale(2.8)" fill="rgba(0, 0, 0, 1)"></use><use xlink:href="#SvgjsG1781" transform="translate(475.99999999999994, 0) scale(2.8)" fill="rgba(0, 0, 0, 1)"></use><use xlink:href="#SvgjsG1775" transform="translate(475.99999999999994, 95.19999999999999) scale(2.8)" fill="rgba(0, 0, 0, 1)"></use><use xlink:href="#SvgjsG1781" transform="translate(475.99999999999994, 190.39999999999998) scale(2.8)" fill="rgba(0, 0, 0, 1)"></use><use xlink:href="#SvgjsG1780" transform="translate(475.99999999999994, 285.59999999999997) scale(2.8)" fill="rgba(0, 0, 0, 1)"></use><use xlink:href="#SvgjsG1779" transform="translate(475.99999999999994, 380.79999999999995) scale(2.8)" fill="rgba(0, 0, 0, 1)"></use><use xlink:href="#SvgjsG1779" transform="translate(475.99999999999994, 475.99999999999994) scale(2.8)" fill="rgba(0, 0, 0, 1)"></use><use xlink:href="#SvgjsG1776" transform="translate(475.99999999999994, 571.1999999999999) scale(2.8)" fill="rgba(0, 0, 0, 1)"></use><use xlink:href="#SvgjsG1778" transform="translate(475.99999999999994, 666.3999999999999) scale(2.8)" fill="rgba(0, 0, 0, 1)"></use><use xlink:href="#SvgjsG1781" transform="translate(475.99999999999994, 761.5999999999999) scale(2.8)" fill="rgba(0, 0, 0, 1)"></use><use xlink:href="#SvgjsG1776" transform="translate(475.99999999999994, 856.8) scale(2.8)" fill="rgba(0, 0, 0, 1)"></use><use xlink:href="#SvgjsG1781" transform="translate(571.1999999999999, 0) scale(2.8)" fill="rgba(0, 0, 0, 1)"></use><use xlink:href="#SvgjsG1781" transform="translate(571.1999999999999, 95.19999999999999) scale(2.8)" fill="rgba(0, 0, 0, 1)"></use><use xlink:href="#SvgjsG1777" transform="translate(571.1999999999999, 190.39999999999998) scale(2.8)" fill="rgba(0, 0, 0, 1)"></use><use xlink:href="#SvgjsG1781" transform="translate(571.1999999999999, 285.59999999999997) scale(2.8)" fill="rgba(0, 0, 0, 1)"></use><use xlink:href="#SvgjsG1777" transform="translate(571.1999999999999, 380.79999999999995) scale(2.8)" fill="rgba(0, 0, 0, 1)"></use><use xlink:href="#SvgjsG1781" transform="translate(571.1999999999999, 475.99999999999994) scale(2.8)" fill="rgba(0, 0, 0, 1)"></use><use xlink:href="#SvgjsG1778" transform="translate(571.1999999999999, 571.1999999999999) scale(2.8)" fill="rgba(0, 0, 0, 1)"></use><use xlink:href="#SvgjsG1780" transform="translate(571.1999999999999, 666.3999999999999) scale(2.8)" fill="rgba(0, 0, 0, 1)"></use><use xlink:href="#SvgjsG1775" transform="translate(571.1999999999999, 761.5999999999999) scale(2.8)" fill="rgba(0, 0, 0, 1)"></use><use xlink:href="#SvgjsG1779" transform="translate(571.1999999999999, 856.8) scale(2.8)" fill="rgba(0, 0, 0, 1)"></use><use xlink:href="#SvgjsG1781" transform="translate(666.3999999999999, 0) scale(2.8)" fill="rgba(0, 0, 0, 1)"></use><use xlink:href="#SvgjsG1777" transform="translate(666.3999999999999, 95.19999999999999) scale(2.8)" fill="rgba(0, 0, 0, 1)"></use><use xlink:href="#SvgjsG1777" transform="translate(666.3999999999999, 190.39999999999998) scale(2.8)" fill="rgba(0, 0, 0, 1)"></use><use xlink:href="#SvgjsG1781" transform="translate(666.3999999999999, 285.59999999999997) scale(2.8)" fill="rgba(0, 0, 0, 1)"></use><use xlink:href="#SvgjsG1776" transform="translate(666.3999999999999, 380.79999999999995) scale(2.8)" fill="rgba(0, 0, 0, 1)"></use><use xlink:href="#SvgjsG1779" transform="translate(666.3999999999999, 475.99999999999994) scale(2.8)" fill="rgba(0, 0, 0, 1)"></use><use xlink:href="#SvgjsG1776" transform="translate(666.3999999999999, 571.1999999999999) scale(2.8)" fill="rgba(0, 0, 0, 1)"></use><use xlink:href="#SvgjsG1778" transform="translate(666.3999999999999, 666.3999999999999) scale(2.8)" fill="rgba(0, 0, 0, 1)"></use><use xlink:href="#SvgjsG1775" transform="translate(666.3999999999999, 761.5999999999999) scale(2.8)" fill="rgba(0, 0, 0, 1)"></use><use xlink:href="#SvgjsG1775" transform="translate(666.3999999999999, 856.8) scale(2.8)" fill="rgba(0, 0, 0, 1)"></use><use xlink:href="#SvgjsG1776" transform="translate(761.5999999999999, 0) scale(2.8)" fill="rgba(0, 0, 0, 1)"></use><use xlink:href="#SvgjsG1775" transform="translate(761.5999999999999, 95.19999999999999) scale(2.8)" fill="rgba(0, 0, 0, 1)"></use><use xlink:href="#SvgjsG1776" transform="translate(761.5999999999999, 190.39999999999998) scale(2.8)" fill="rgba(0, 0, 0, 1)"></use><use xlink:href="#SvgjsG1779" transform="translate(761.5999999999999, 285.59999999999997) scale(2.8)" fill="rgba(0, 0, 0, 1)"></use><use xlink:href="#SvgjsG1777" transform="translate(761.5999999999999, 380.79999999999995) scale(2.8)" fill="rgba(0, 0, 0, 1)"></use><use xlink:href="#SvgjsG1779" transform="translate(761.5999999999999, 475.99999999999994) scale(2.8)" fill="rgba(0, 0, 0, 1)"></use><use xlink:href="#SvgjsG1779" transform="translate(761.5999999999999, 571.1999999999999) scale(2.8)" fill="rgba(0, 0, 0, 1)"></use><use xlink:href="#SvgjsG1777" transform="translate(761.5999999999999, 666.3999999999999) scale(2.8)" fill="rgba(0, 0, 0, 1)"></use><use xlink:href="#SvgjsG1778" transform="translate(761.5999999999999, 761.5999999999999) scale(2.8)" fill="rgba(0, 0, 0, 1)"></use><use xlink:href="#SvgjsG1781" transform="translate(761.5999999999999, 856.8) scale(2.8)" fill="rgba(0, 0, 0, 1)"></use><use xlink:href="#SvgjsG1777" transform="translate(856.8, 0) scale(2.8)" fill="rgba(0, 0, 0, 1)"></use><use xlink:href="#SvgjsG1777" transform="translate(856.8, 95.19999999999999) scale(2.8)" fill="rgba(0, 0, 0, 1)"></use><use xlink:href="#SvgjsG1776" transform="translate(856.8, 190.39999999999998) scale(2.8)" fill="rgba(0, 0, 0, 1)"></use><use xlink:href="#SvgjsG1779" transform="translate(856.8, 285.59999999999997) scale(2.8)" fill="rgba(0, 0, 0, 1)"></use><use xlink:href="#SvgjsG1775" transform="translate(856.8, 380.79999999999995) scale(2.8)" fill="rgba(0, 0, 0, 1)"></use><use xlink:href="#SvgjsG1776" transform="translate(856.8, 475.99999999999994) scale(2.8)" fill="rgba(0, 0, 0, 1)"></use><use xlink:href="#SvgjsG1778" transform="translate(856.8, 571.1999999999999) scale(2.8)" fill="rgba(0, 0, 0, 1)"></use><use xlink:href="#SvgjsG1775" transform="translate(856.8, 666.3999999999999) scale(2.8)" fill="rgba(0, 0, 0, 1)"></use><use xlink:href="#SvgjsG1781" transform="translate(856.8, 761.5999999999999) scale(2.8)" fill="rgba(0, 0, 0, 1)"></use><use xlink:href="#SvgjsG1777" transform="translate(856.8, 856.8) scale(2.8)" fill="rgba(0, 0, 0, 1)"></use></g></defs></svg>