<svg xmlns="http://www.w3.org/2000/svg" version="1.1" xmlns:xlink="http://www.w3.org/1999/xlink" xmlns:svgjs="http://svgjs.com/svgjs" width="1920" height="1080" preserveAspectRatio="none" viewBox="0 0 1920 1080"><g mask="url(&quot;#SvgjsMask1092&quot;)" fill="none"><rect width="1920" height="1080" x="0" y="0" fill="rgba(243, 137, 19, 1)"></rect><path d="M1920 0L1868.68 0L1920 134.89z" fill="rgba(255, 255, 255, .1)"></path><path d="M1868.68 0L1920 134.89L1920 367.15L1284.89 0z" fill="rgba(255, 255, 255, .075)"></path><path d="M1284.8899999999999 0L1920 367.15L1920 809.41L1133.2299999999998 0z" fill="rgba(255, 255, 255, .05)"></path><path d="M1133.23 0L1920 809.41L1920 936.14L788.03 0z" fill="rgba(255, 255, 255, .025)"></path><path d="M0 1080L191.55 1080L0 790.06z" fill="rgba(0, 0, 0, .1)"></path><path d="M0 790.06L191.55 1080L1051.78 1080L0 417.35999999999996z" fill="rgba(0, 0, 0, .075)"></path><path d="M0 417.36L1051.78 1080L1316.73 1080L0 317.76z" fill="rgba(0, 0, 0, .05)"></path><path d="M0 317.76L1316.73 1080L1456.95 1080L0 305.46999999999997z" fill="rgba(0, 0, 0, .025)"></path></g><defs><mask id="SvgjsMask1092"><rect width="1920" height="1080" fill="#ffffff"></rect></mask></defs></svg>