<svg xmlns="http://www.w3.org/2000/svg" version="1.1" xmlns:xlink="http://www.w3.org/1999/xlink" xmlns:svgjs="http://svgjs.com/svgjs" width="1920" height="1080" preserveAspectRatio="none" viewBox="0 0 1920 1080"><g mask="url(&quot;#SvgjsMask1059&quot;)" fill="none"><rect width="1920" height="1080" x="0" y="0" fill="rgba(255, 145, 44, 1)"></rect><path d="M0,935.954C170.902,963.384,321.046,817.328,454.175,706.71C575.458,605.935,677.189,481.611,726.903,331.966C773.67,191.192,728.668,44.224,723.51,-104.025C717.612,-273.538,788.473,-460.567,694.42,-601.718C599.25,-744.546,413.099,-807.044,242.507,-825.901C85.121,-843.298,-58.056,-757.934,-205.902,-701.236C-341.438,-649.259,-471.656,-597.063,-586.325,-508.053C-723.816,-401.328,-895.479,-303.853,-935.925,-134.566C-976.807,36.547,-904.215,225.348,-794.385,362.783C-693.503,489.02,-500.285,479.995,-369.24,574.548C-226.688,677.403,-173.564,908.096,0,935.954" fill="#da6900"></path><path d="M1920 2037.442C2095.74 2024.726 2247.429 1903.2179999999998 2364.32 1771.375 2464.793 1658.051 2467.874 1496.517 2524.219 1355.938 2577.174 1223.818 2669.843 1111.399 2685.545 969.931 2704.407 799.996 2748.925 586.3679999999999 2622.4030000000002 471.36400000000003 2492.407 353.202 2278.293 481.90099999999995 2106.787 443.861 1952.708 409.687 1834.277 229.48199999999997 1679.908 262.321 1526.512 294.953 1480.42 492.446 1367.383 601.155 1239.016 724.608 1000.575 767.919 971.484 943.624 942.533 1118.485 1155.287 1234.599 1236.414 1392.183 1312.365 1539.711 1311.6779999999999 1724.909 1432.343 1838.809 1562.6190000000001 1961.781 1741.319 2050.371 1920 2037.442" fill="#ffbb7d"></path></g><defs><mask id="SvgjsMask1059"><rect width="1920" height="1080" fill="#ffffff"></rect></mask></defs></svg>