<svg id="visual" viewBox="0 0 900 600" width="900" height="600" xmlns="http://www.w3.org/2000/svg" xmlns:xlink="http://www.w3.org/1999/xlink" version="1.1"><path d="M0 127L13.7 120C27.3 113 54.7 99 82 95C109.3 91 136.7 97 163.8 92C191 87 218 71 245.2 63C272.3 55 299.7 55 327 57C354.3 59 381.7 63 409 64C436.3 65 463.7 63 491 76C518.3 89 545.7 117 573 133C600.3 149 627.7 153 654.8 146C682 139 709 121 736.2 121C763.3 121 790.7 139 818 136C845.3 133 872.7 109 886.3 97L900 85L900 0L886.3 0C872.7 0 845.3 0 818 0C790.7 0 763.3 0 736.2 0C709 0 682 0 654.8 0C627.7 0 600.3 0 573 0C545.7 0 518.3 0 491 0C463.7 0 436.3 0 409 0C381.7 0 354.3 0 327 0C299.7 0 272.3 0 245.2 0C218 0 191 0 163.8 0C136.7 0 109.3 0 82 0C54.7 0 27.3 0 13.7 0L0 0Z" fill="#ffa859"></path><path d="M0 181L13.7 173C27.3 165 54.7 149 82 151C109.3 153 136.7 173 163.8 171C191 169 218 145 245.2 143C272.3 141 299.7 161 327 171C354.3 181 381.7 181 409 168C436.3 155 463.7 129 491 144C518.3 159 545.7 215 573 237C600.3 259 627.7 247 654.8 226C682 205 709 175 736.2 171C763.3 167 790.7 189 818 196C845.3 203 872.7 195 886.3 191L900 187L900 83L886.3 95C872.7 107 845.3 131 818 134C790.7 137 763.3 119 736.2 119C709 119 682 137 654.8 144C627.7 151 600.3 147 573 131C545.7 115 518.3 87 491 74C463.7 61 436.3 63 409 62C381.7 61 354.3 57 327 55C299.7 53 272.3 53 245.2 61C218 69 191 85 163.8 90C136.7 95 109.3 89 82 93C54.7 97 27.3 111 13.7 118L0 125Z" fill="#ff9335"></path><path d="M0 367L13.7 346C27.3 325 54.7 283 82 279C109.3 275 136.7 309 163.8 308C191 307 218 271 245.2 287C272.3 303 299.7 371 327 381C354.3 391 381.7 343 409 320C436.3 297 463.7 299 491 307C518.3 315 545.7 329 573 332C600.3 335 627.7 327 654.8 338C682 349 709 379 736.2 389C763.3 399 790.7 389 818 368C845.3 347 872.7 315 886.3 299L900 283L900 185L886.3 189C872.7 193 845.3 201 818 194C790.7 187 763.3 165 736.2 169C709 173 682 203 654.8 224C627.7 245 600.3 257 573 235C545.7 213 518.3 157 491 142C463.7 127 436.3 153 409 166C381.7 179 354.3 179 327 169C299.7 159 272.3 139 245.2 141C218 143 191 167 163.8 169C136.7 171 109.3 151 82 149C54.7 147 27.3 163 13.7 171L0 179Z" fill="#ff7c00"></path><path d="M0 553L13.7 555C27.3 557 54.7 561 82 560C109.3 559 136.7 553 163.8 542C191 531 218 515 245.2 513C272.3 511 299.7 523 327 528C354.3 533 381.7 531 409 525C436.3 519 463.7 509 491 515C518.3 521 545.7 543 573 549C600.3 555 627.7 545 654.8 540C682 535 709 535 736.2 536C763.3 537 790.7 539 818 536C845.3 533 872.7 525 886.3 521L900 517L900 281L886.3 297C872.7 313 845.3 345 818 366C790.7 387 763.3 397 736.2 387C709 377 682 347 654.8 336C627.7 325 600.3 333 573 330C545.7 327 518.3 313 491 305C463.7 297 436.3 295 409 318C381.7 341 354.3 389 327 379C299.7 369 272.3 301 245.2 285C218 269 191 305 163.8 306C136.7 307 109.3 273 82 277C54.7 281 27.3 323 13.7 344L0 365Z" fill="#dc6b04"></path><path d="M0 601L13.7 601C27.3 601 54.7 601 82 601C109.3 601 136.7 601 163.8 601C191 601 218 601 245.2 601C272.3 601 299.7 601 327 601C354.3 601 381.7 601 409 601C436.3 601 463.7 601 491 601C518.3 601 545.7 601 573 601C600.3 601 627.7 601 654.8 601C682 601 709 601 736.2 601C763.3 601 790.7 601 818 601C845.3 601 872.7 601 886.3 601L900 601L900 515L886.3 519C872.7 523 845.3 531 818 534C790.7 537 763.3 535 736.2 534C709 533 682 533 654.8 538C627.7 543 600.3 553 573 547C545.7 541 518.3 519 491 513C463.7 507 436.3 517 409 523C381.7 529 354.3 531 327 526C299.7 521 272.3 509 245.2 511C218 513 191 529 163.8 540C136.7 551 109.3 557 82 558C54.7 559 27.3 555 13.7 553L0 551Z" fill="#ba5b06"></path></svg>